<mxfile host="app.diagrams.net" agent="Mozilla/5.0 (X11; Linux x86_64; rv:133.0) Gecko/20100101 Firefox/133.0" version="26.0.16">
  <diagram name="Page-1" id="EbPx7yfSxMJlQDCsH0uy">
    <mxGraphModel dx="5985" dy="2745" grid="1" gridSize="10" guides="1" tooltips="1" connect="1" arrows="1" fold="1" page="0" pageScale="1" pageWidth="850" pageHeight="1100" math="0" shadow="0">
      <root>
        <mxCell id="0" />
        <mxCell id="1" parent="0" />
        <mxCell id="f7zD8Vruu4fjO3Ho578D-1" style="edgeStyle=orthogonalEdgeStyle;rounded=0;orthogonalLoop=1;jettySize=auto;html=1;entryX=0;entryY=0.5;entryDx=0;entryDy=0;endArrow=none;startFill=0;" edge="1" parent="1">
          <mxGeometry relative="1" as="geometry">
            <mxPoint x="-2025" y="-440" as="sourcePoint" />
            <mxPoint x="-1820" y="-440" as="targetPoint" />
          </mxGeometry>
        </mxCell>
        <mxCell id="f7zD8Vruu4fjO3Ho578D-2" value="User" style="shape=umlActor;verticalLabelPosition=bottom;verticalAlign=top;html=1;outlineConnect=0;" vertex="1" parent="1">
          <mxGeometry x="-2060" y="-480" width="35" height="70" as="geometry" />
        </mxCell>
        <mxCell id="f7zD8Vruu4fjO3Ho578D-3" value=":Frontend" style="rounded=0;whiteSpace=wrap;html=1;" vertex="1" parent="1">
          <mxGeometry x="-1820" y="-465" width="130.91" height="40" as="geometry" />
        </mxCell>
        <mxCell id="f7zD8Vruu4fjO3Ho578D-4" value="" style="endArrow=classic;html=1;rounded=0;" edge="1" parent="1">
          <mxGeometry width="50" height="50" relative="1" as="geometry">
            <mxPoint x="-2000" y="-455" as="sourcePoint" />
            <mxPoint x="-1840" y="-455" as="targetPoint" />
          </mxGeometry>
        </mxCell>
        <mxCell id="f7zD8Vruu4fjO3Ho578D-5" value="" style="endArrow=classic;html=1;rounded=0;dashed=1;" edge="1" parent="1">
          <mxGeometry width="50" height="50" relative="1" as="geometry">
            <mxPoint x="-1850" y="-425" as="sourcePoint" />
            <mxPoint x="-2010" y="-425" as="targetPoint" />
          </mxGeometry>
        </mxCell>
        <mxCell id="f7zD8Vruu4fjO3Ho578D-6" value="&amp;nbsp;:Router" style="rounded=0;whiteSpace=wrap;html=1;" vertex="1" parent="1">
          <mxGeometry x="-1480" y="-465" width="130.91" height="40" as="geometry" />
        </mxCell>
        <mxCell id="f7zD8Vruu4fjO3Ho578D-7" style="edgeStyle=orthogonalEdgeStyle;rounded=0;orthogonalLoop=1;jettySize=auto;html=1;entryX=0;entryY=0.5;entryDx=0;entryDy=0;endArrow=none;startFill=0;" edge="1" parent="1" target="f7zD8Vruu4fjO3Ho578D-6">
          <mxGeometry relative="1" as="geometry">
            <mxPoint x="-1689.09" y="-445" as="sourcePoint" />
            <mxPoint x="-1484.09" y="-445" as="targetPoint" />
          </mxGeometry>
        </mxCell>
        <mxCell id="f7zD8Vruu4fjO3Ho578D-8" value="" style="endArrow=classic;html=1;rounded=0;" edge="1" parent="1">
          <mxGeometry width="50" height="50" relative="1" as="geometry">
            <mxPoint x="-1664.09" y="-460" as="sourcePoint" />
            <mxPoint x="-1504.09" y="-460" as="targetPoint" />
          </mxGeometry>
        </mxCell>
        <mxCell id="f7zD8Vruu4fjO3Ho578D-9" value="" style="endArrow=classic;html=1;rounded=0;dashed=1;" edge="1" parent="1">
          <mxGeometry width="50" height="50" relative="1" as="geometry">
            <mxPoint x="-1514.09" y="-430" as="sourcePoint" />
            <mxPoint x="-1674.09" y="-430" as="targetPoint" />
          </mxGeometry>
        </mxCell>
        <mxCell id="f7zD8Vruu4fjO3Ho578D-10" value="&amp;nbsp;" style="text;whiteSpace=wrap;html=1;" vertex="1" parent="1">
          <mxGeometry x="-1580" y="-480" width="40" height="40" as="geometry" />
        </mxCell>
        <mxCell id="f7zD8Vruu4fjO3Ho578D-11" value="&amp;nbsp;:UserController" style="rounded=0;whiteSpace=wrap;html=1;" vertex="1" parent="1">
          <mxGeometry x="-1140" y="-465" width="130.91" height="40" as="geometry" />
        </mxCell>
        <mxCell id="f7zD8Vruu4fjO3Ho578D-12" style="edgeStyle=orthogonalEdgeStyle;rounded=0;orthogonalLoop=1;jettySize=auto;html=1;entryX=0;entryY=0.5;entryDx=0;entryDy=0;endArrow=none;startFill=0;" edge="1" parent="1" target="f7zD8Vruu4fjO3Ho578D-11">
          <mxGeometry relative="1" as="geometry">
            <mxPoint x="-1349.09" y="-445" as="sourcePoint" />
            <mxPoint x="-1144.09" y="-445" as="targetPoint" />
          </mxGeometry>
        </mxCell>
        <mxCell id="f7zD8Vruu4fjO3Ho578D-13" value="" style="endArrow=classic;html=1;rounded=0;" edge="1" parent="1">
          <mxGeometry width="50" height="50" relative="1" as="geometry">
            <mxPoint x="-1324.09" y="-460" as="sourcePoint" />
            <mxPoint x="-1164.09" y="-460" as="targetPoint" />
          </mxGeometry>
        </mxCell>
        <mxCell id="f7zD8Vruu4fjO3Ho578D-14" value="" style="endArrow=classic;html=1;rounded=0;dashed=1;" edge="1" parent="1">
          <mxGeometry width="50" height="50" relative="1" as="geometry">
            <mxPoint x="-1174.09" y="-430" as="sourcePoint" />
            <mxPoint x="-1334.09" y="-430" as="targetPoint" />
          </mxGeometry>
        </mxCell>
        <mxCell id="f7zD8Vruu4fjO3Ho578D-15" value="&amp;nbsp;:UserService" style="rounded=0;whiteSpace=wrap;html=1;" vertex="1" parent="1">
          <mxGeometry x="-800" y="-465" width="130.91" height="40" as="geometry" />
        </mxCell>
        <mxCell id="f7zD8Vruu4fjO3Ho578D-16" style="edgeStyle=orthogonalEdgeStyle;rounded=0;orthogonalLoop=1;jettySize=auto;html=1;entryX=0;entryY=0.5;entryDx=0;entryDy=0;endArrow=none;startFill=0;" edge="1" parent="1" target="f7zD8Vruu4fjO3Ho578D-15">
          <mxGeometry relative="1" as="geometry">
            <mxPoint x="-1009.0899999999999" y="-445" as="sourcePoint" />
            <mxPoint x="-804.0899999999999" y="-445" as="targetPoint" />
          </mxGeometry>
        </mxCell>
        <mxCell id="f7zD8Vruu4fjO3Ho578D-17" value="" style="endArrow=classic;html=1;rounded=0;" edge="1" parent="1">
          <mxGeometry width="50" height="50" relative="1" as="geometry">
            <mxPoint x="-984.0899999999999" y="-460" as="sourcePoint" />
            <mxPoint x="-824.0899999999999" y="-460" as="targetPoint" />
          </mxGeometry>
        </mxCell>
        <mxCell id="f7zD8Vruu4fjO3Ho578D-18" value="" style="endArrow=classic;html=1;rounded=0;dashed=1;" edge="1" parent="1">
          <mxGeometry width="50" height="50" relative="1" as="geometry">
            <mxPoint x="-829.9999999999999" y="-430" as="sourcePoint" />
            <mxPoint x="-989.9999999999999" y="-430" as="targetPoint" />
          </mxGeometry>
        </mxCell>
        <mxCell id="f7zD8Vruu4fjO3Ho578D-19" style="edgeStyle=orthogonalEdgeStyle;rounded=0;orthogonalLoop=1;jettySize=auto;html=1;endArrow=none;startFill=0;" edge="1" parent="1" source="f7zD8Vruu4fjO3Ho578D-20" target="f7zD8Vruu4fjO3Ho578D-25">
          <mxGeometry relative="1" as="geometry" />
        </mxCell>
        <mxCell id="f7zD8Vruu4fjO3Ho578D-20" value="&amp;nbsp;:UserRepository" style="rounded=0;whiteSpace=wrap;html=1;" vertex="1" parent="1">
          <mxGeometry x="-459.99999999999994" y="-465" width="130.91" height="40" as="geometry" />
        </mxCell>
        <mxCell id="f7zD8Vruu4fjO3Ho578D-21" style="edgeStyle=orthogonalEdgeStyle;rounded=0;orthogonalLoop=1;jettySize=auto;html=1;entryX=0;entryY=0.5;entryDx=0;entryDy=0;endArrow=none;startFill=0;" edge="1" parent="1" target="f7zD8Vruu4fjO3Ho578D-20">
          <mxGeometry relative="1" as="geometry">
            <mxPoint x="-669.0899999999999" y="-445" as="sourcePoint" />
            <mxPoint x="-464.08999999999986" y="-445" as="targetPoint" />
          </mxGeometry>
        </mxCell>
        <mxCell id="f7zD8Vruu4fjO3Ho578D-22" value="" style="endArrow=classic;html=1;rounded=0;" edge="1" parent="1">
          <mxGeometry width="50" height="50" relative="1" as="geometry">
            <mxPoint x="-644.0899999999999" y="-460" as="sourcePoint" />
            <mxPoint x="-484.08999999999986" y="-460" as="targetPoint" />
          </mxGeometry>
        </mxCell>
        <mxCell id="f7zD8Vruu4fjO3Ho578D-23" value="" style="endArrow=classic;html=1;rounded=0;dashed=1;" edge="1" parent="1">
          <mxGeometry width="50" height="50" relative="1" as="geometry">
            <mxPoint x="-479.9999999999999" y="-430" as="sourcePoint" />
            <mxPoint x="-639.9999999999999" y="-430" as="targetPoint" />
          </mxGeometry>
        </mxCell>
        <mxCell id="f7zD8Vruu4fjO3Ho578D-24" value="&lt;div align=&quot;left&quot;&gt;1. .handleLoginClick()&lt;/div&gt;&lt;div align=&quot;left&quot;&gt;3. .handleLohinSubmit(username, password)&lt;br&gt;&lt;/div&gt;" style="text;html=1;align=left;verticalAlign=middle;resizable=0;points=[];autosize=1;strokeColor=none;fillColor=none;" vertex="1" parent="1">
          <mxGeometry x="-2020" y="-520" width="280" height="40" as="geometry" />
        </mxCell>
        <mxCell id="f7zD8Vruu4fjO3Ho578D-25" value="&amp;nbsp;:Database" style="rounded=0;whiteSpace=wrap;html=1;" vertex="1" parent="1">
          <mxGeometry x="-459.99999999999994" y="-220" width="130.91" height="40" as="geometry" />
        </mxCell>
        <mxCell id="f7zD8Vruu4fjO3Ho578D-26" value="" style="endArrow=classic;html=1;rounded=0;" edge="1" parent="1">
          <mxGeometry width="50" height="50" relative="1" as="geometry">
            <mxPoint x="-410" y="-400" as="sourcePoint" />
            <mxPoint x="-410" y="-240" as="targetPoint" />
          </mxGeometry>
        </mxCell>
        <mxCell id="f7zD8Vruu4fjO3Ho578D-27" value="" style="endArrow=classic;html=1;rounded=0;dashed=1;" edge="1" parent="1">
          <mxGeometry width="50" height="50" relative="1" as="geometry">
            <mxPoint x="-380" y="-240" as="sourcePoint" />
            <mxPoint x="-380" y="-400" as="targetPoint" />
          </mxGeometry>
        </mxCell>
        <mxCell id="f7zD8Vruu4fjO3Ho578D-28" value="&lt;div&gt;8. SELECT * FROM users WHERE username = @username AND password = @password&lt;/div&gt;" style="text;html=1;align=center;verticalAlign=middle;resizable=0;points=[];autosize=1;strokeColor=none;fillColor=none;" vertex="1" parent="1">
          <mxGeometry x="-930" y="-320" width="520" height="30" as="geometry" />
        </mxCell>
        <mxCell id="f7zD8Vruu4fjO3Ho578D-29" value="9. User, Error" style="text;html=1;align=center;verticalAlign=middle;resizable=0;points=[];autosize=1;strokeColor=none;fillColor=none;" vertex="1" parent="1">
          <mxGeometry x="-375.00000000000006" y="-320" width="100" height="30" as="geometry" />
        </mxCell>
        <mxCell id="f7zD8Vruu4fjO3Ho578D-30" value="&lt;div align=&quot;left&quot;&gt;11. [Error != Null] User, Error&lt;/div&gt;&lt;div align=&quot;left&quot;&gt;15. [User == Null] User, Error&lt;/div&gt;&lt;div align=&quot;left&quot;&gt;22. User with SessionToken&lt;br&gt;&lt;/div&gt;" style="text;html=1;align=left;verticalAlign=middle;resizable=0;points=[];autosize=1;strokeColor=none;fillColor=none;" vertex="1" parent="1">
          <mxGeometry x="-1009.09" y="-435" width="190" height="60" as="geometry" />
        </mxCell>
        <mxCell id="f7zD8Vruu4fjO3Ho578D-31" value="&lt;div align=&quot;left&quot;&gt;10. User, Error&lt;/div&gt;&lt;div align=&quot;left&quot;&gt;20. SessionToken&lt;br&gt;&lt;/div&gt;" style="text;html=1;align=left;verticalAlign=middle;resizable=0;points=[];autosize=1;strokeColor=none;fillColor=none;" vertex="1" parent="1">
          <mxGeometry x="-659.09" y="-430" width="120" height="40" as="geometry" />
        </mxCell>
        <mxCell id="f7zD8Vruu4fjO3Ho578D-32" value="&lt;div align=&quot;left&quot;&gt;2. .Show login form&lt;br&gt;&lt;/div&gt;&lt;div align=&quot;left&quot;&gt;14. Show error &quot;Invalid username or password&quot;&lt;/div&gt;&lt;div align=&quot;left&quot;&gt;18. Show error &quot;User not found&quot;&lt;/div&gt;&lt;div align=&quot;left&quot;&gt;25. Show success &quot;Logged in&quot;&lt;br&gt;&lt;/div&gt;" style="text;html=1;align=center;verticalAlign=middle;resizable=0;points=[];autosize=1;strokeColor=none;fillColor=none;" vertex="1" parent="1">
          <mxGeometry x="-2010" y="-435" width="300" height="70" as="geometry" />
        </mxCell>
        <mxCell id="f7zD8Vruu4fjO3Ho578D-33" value="4. POST/api/login" style="text;html=1;align=center;verticalAlign=middle;resizable=0;points=[];autosize=1;strokeColor=none;fillColor=none;" vertex="1" parent="1">
          <mxGeometry x="-1650" y="-495" width="120" height="30" as="geometry" />
        </mxCell>
        <mxCell id="f7zD8Vruu4fjO3Ho578D-34" value="5. .Login(username,password)" style="text;html=1;align=center;verticalAlign=middle;resizable=0;points=[];autosize=1;strokeColor=none;fillColor=none;" vertex="1" parent="1">
          <mxGeometry x="-1350" y="-500" width="200" height="30" as="geometry" />
        </mxCell>
        <mxCell id="f7zD8Vruu4fjO3Ho578D-35" value="6. .Login(username,password)" style="text;html=1;align=center;verticalAlign=middle;resizable=0;points=[];autosize=1;strokeColor=none;fillColor=none;" vertex="1" parent="1">
          <mxGeometry x="-994.0899999999999" y="-500" width="200" height="30" as="geometry" />
        </mxCell>
        <mxCell id="f7zD8Vruu4fjO3Ho578D-36" value="&lt;div align=&quot;left&quot;&gt;7. .Login(username,password)&lt;/div&gt;&lt;div align=&quot;left&quot;&gt;19. .GetSessionToken(SessionToken)&lt;br&gt;&lt;/div&gt;" style="text;html=1;align=left;verticalAlign=middle;resizable=0;points=[];autosize=1;strokeColor=none;fillColor=none;" vertex="1" parent="1">
          <mxGeometry x="-659.0899999999999" y="-505" width="230" height="40" as="geometry" />
        </mxCell>
        <mxCell id="f7zD8Vruu4fjO3Ho578D-37" value="&lt;div align=&quot;left&quot;&gt;12. 401 Unauthorized&lt;/div&gt;&lt;div align=&quot;left&quot;&gt;16. 404 Not Found&lt;/div&gt;&lt;div align=&quot;left&quot;&gt;23. 200 OK&lt;br&gt;&lt;/div&gt;" style="text;html=1;align=left;verticalAlign=middle;resizable=0;points=[];autosize=1;strokeColor=none;fillColor=none;" vertex="1" parent="1">
          <mxGeometry x="-1330" y="-435" width="150" height="60" as="geometry" />
        </mxCell>
        <mxCell id="f7zD8Vruu4fjO3Ho578D-38" value="&lt;div align=&quot;left&quot;&gt;13. 401 Unauthorized&lt;/div&gt;&lt;div align=&quot;left&quot;&gt;17. 404 Not Found&lt;/div&gt;&lt;div align=&quot;left&quot;&gt;24. 200 OK&lt;br&gt;&lt;/div&gt;" style="text;html=1;align=left;verticalAlign=middle;resizable=0;points=[];autosize=1;strokeColor=none;fillColor=none;" vertex="1" parent="1">
          <mxGeometry x="-1665" y="-435" width="150" height="60" as="geometry" />
        </mxCell>
        <mxCell id="f7zD8Vruu4fjO3Ho578D-39" value="Log In With Username And Password" style="text;html=1;align=center;verticalAlign=middle;whiteSpace=wrap;rounded=0;fontStyle=1;fontSize=20;" vertex="1" parent="1">
          <mxGeometry x="-1360" y="-610" width="450" height="30" as="geometry" />
        </mxCell>
        <mxCell id="f7zD8Vruu4fjO3Ho578D-42" value="" style="endArrow=none;html=1;rounded=0;" edge="1" parent="1">
          <mxGeometry width="50" height="50" relative="1" as="geometry">
            <mxPoint x="-770" y="-465" as="sourcePoint" />
            <mxPoint x="-770" y="-500" as="targetPoint" />
          </mxGeometry>
        </mxCell>
        <mxCell id="f7zD8Vruu4fjO3Ho578D-43" value="" style="endArrow=none;html=1;rounded=0;" edge="1" parent="1">
          <mxGeometry width="50" height="50" relative="1" as="geometry">
            <mxPoint x="-770" y="-500" as="sourcePoint" />
            <mxPoint x="-730" y="-500" as="targetPoint" />
          </mxGeometry>
        </mxCell>
        <mxCell id="f7zD8Vruu4fjO3Ho578D-44" value="" style="endArrow=classic;html=1;rounded=0;entryX=0.54;entryY=-0.034;entryDx=0;entryDy=0;entryPerimeter=0;" edge="1" parent="1" target="f7zD8Vruu4fjO3Ho578D-15">
          <mxGeometry width="50" height="50" relative="1" as="geometry">
            <mxPoint x="-730" y="-500" as="sourcePoint" />
            <mxPoint x="-720" y="-480" as="targetPoint" />
          </mxGeometry>
        </mxCell>
        <mxCell id="f7zD8Vruu4fjO3Ho578D-45" value="&lt;div align=&quot;left&quot;&gt;21. SetSessionToken(SessionToken)&lt;br&gt;&lt;/div&gt;" style="text;html=1;align=left;verticalAlign=middle;resizable=0;points=[];autosize=1;strokeColor=none;fillColor=none;" vertex="1" parent="1">
          <mxGeometry x="-844.5500000000001" y="-530" width="220" height="30" as="geometry" />
        </mxCell>
      </root>
    </mxGraphModel>
  </diagram>
</mxfile>
